<svg width="218" height="120" viewBox="0 0 218 120" fill="none" xmlns="http://www.w3.org/2000/svg">
<path d="M53.4975 63.7494C54.8975 59.1364 56.4623 54.4942 57.9813 49.9878C58.9757 47.0377 60.0041 43.9871 60.9731 40.9833C61.5029 39.3408 62.0235 37.7315 62.5647 36.1048C64.7152 29.6418 67.1996 22.7962 70.7888 16.5187C74.2704 10.43 78.6156 4.03646 84.4473 2.78156C84.7364 2.7191 85.0116 2.68894 85.2731 2.68715C87.2096 2.67279 88.3907 4.21124 88.8704 5.79823C89.6687 8.44019 88.9575 11.1223 88.2699 13.7162C86.7151 19.582 84.1119 25.4422 80.3123 31.6317C74.1078 41.7367 65.7807 51.7536 54.1062 63.1547L53.4975 63.7494ZM50.8925 78.0559C51.7878 76.8912 52.5451 75.937 53.0849 75.265C57.7008 69.5143 59.317 68.3512 59.9169 67.8675C60.6466 67.2793 61.4673 66.7582 62.261 66.2535C62.9535 65.8139 63.6694 65.3591 64.3403 64.8525C65.5947 63.9048 67.0768 63.3646 68.9942 63.1528C69.8014 63.0789 70.8344 63.1854 71.3144 63.7039C71.5531 63.9622 71.6316 64.3101 71.5536 64.7684L71.5498 64.7947C70.9377 70.1803 62.4576 76.062 57.8771 77.8436C56.4073 78.4154 55.0538 78.6135 55.0538 78.6135C53.2355 78.7974 51.7461 78.3723 50.8925 78.0559ZM124.163 51.0665C123.61 52.8977 123.04 54.7884 122.352 56.5543L117.881 57.53C120.145 47.9184 123.563 39.3473 128.31 31.382C128.324 31.5612 128.327 31.7337 128.31 31.8988L128.249 32.5055C128.068 34.2838 127.882 36.1223 127.583 37.9038C127.197 40.2057 126.731 42.4589 126.199 44.6007C125.942 45.6347 125.586 46.6736 125.242 47.6784C125.052 48.2332 124.856 48.807 124.676 49.38C124.503 49.9376 124.333 50.501 124.163 51.0665ZM115.97 68.8656C115.845 68.2487 116.008 67.6853 116.18 67.0887C116.309 66.6422 116.443 66.1805 116.466 65.6687C116.502 64.6751 116.699 63.6486 116.889 62.6559C117.016 61.9982 117.146 61.3181 117.231 60.6465L117.235 60.6117L117.235 60.5766C117.232 60.4398 117.249 60.3833 117.245 60.3787C117.3 60.3467 117.494 60.3139 117.6 60.2964C118.653 60.1207 119.686 59.9061 120.778 59.6789C120.931 59.6475 121.084 59.6154 121.238 59.5836C119.774 63.4518 117.875 67.0562 116.056 70.2693C116.078 69.7982 116.064 69.3267 115.97 68.8656ZM168.985 117.012C168.318 116.742 167.858 116.182 167.618 115.349C166.967 113.097 167.49 110.976 168.153 109.019L168.317 108.53C168.928 106.711 169.504 104.993 170.643 103.496C171.147 102.832 171.616 102.133 172.07 101.458C172.598 100.673 173.142 99.8621 173.734 99.1209C174.334 98.3676 175.077 97.6814 175.796 97.018C176.015 96.8159 176.234 96.6136 176.444 96.4142C176.932 95.9652 177.415 95.5093 177.898 95.0534C179.375 93.6594 180.902 92.218 182.543 91.0102C182.864 90.783 183.216 90.5926 183.587 90.3917C183.923 90.21 184.269 90.0226 184.599 89.8015C185.044 89.5045 185.476 89.1845 185.895 88.8747C186.421 88.485 186.966 88.0817 187.522 87.7355C188.192 87.3173 188.919 86.9454 189.622 86.5858L189.773 86.5092C189.362 87.7814 188.959 89.063 188.566 90.3102C187.434 93.9077 186.263 97.6275 184.901 101.203C181.884 108.834 178.093 113.756 173.296 116.258C172.114 116.933 170.274 117.537 168.985 117.012ZM182.68 53.117C182.603 53.3444 182.524 53.5793 182.392 53.7253C182.182 53.9583 181.291 53.9392 180.813 53.9294C180.594 53.9245 180.386 53.9206 180.215 53.9301C179.553 53.9686 178.891 54.0047 178.229 54.041L177.883 54.0602C178.015 53.6981 178.186 53.2047 178.421 52.5309C178.67 51.8134 178.98 50.9201 179.036 50.7939C179.685 49.3424 180.473 47.7989 181.445 46.0749C182.772 43.7205 184.172 41.5012 185.606 39.4788C185.771 39.247 185.944 38.9866 186.127 38.7117C186.627 37.9608 187.215 37.0776 187.856 36.4568C186.524 41.3234 184.874 46.634 182.68 53.117ZM176.863 57.271C177.068 56.6349 177.327 56.5977 178.194 56.5671C178.349 56.5619 178.51 56.5562 178.679 56.5445C179.39 56.4954 180.103 56.4521 180.815 56.4087C180.982 56.3988 181.148 56.3886 181.315 56.3784C181.16 56.9315 180.947 57.4653 180.651 58.0464C178.822 61.6413 176.75 65.1582 174.494 68.5C174.44 68.5796 174.387 68.6574 174.336 68.7327C174.81 64.8445 175.659 60.9957 176.863 57.271ZM217.47 73.3296C216.965 72.6397 216.27 72.4634 215.657 72.3079C215.463 72.259 215.281 72.2125 215.11 72.1522L214.777 72.0346L214.203 72.7842L214.75 73.4982C213.799 73.7837 212.842 74.0626 211.91 74.334C209.292 75.097 206.584 75.8857 203.982 76.8346C201.384 77.7825 198.818 78.9177 196.337 80.0155C195.648 80.3205 194.944 80.6317 194.239 80.9392C194.618 80.1558 195.009 79.3465 195.403 78.5388C195.442 78.4585 195.483 78.3782 195.523 78.2983C195.871 77.6079 196.266 76.8256 195.929 75.8831C195.783 75.4746 195.374 75.0846 194.978 74.9757C194.522 74.8505 193.883 75.2589 193.738 75.6548C193.138 77.2932 191.248 79.05 189.341 79.7406C188.844 79.9204 188.428 79.9879 188.069 79.9467C187.674 79.9011 187.326 79.7036 187.16 79.4309C186.942 79.0725 186.98 78.5707 187.048 77.9995C187.065 77.8525 187.104 77.656 187.144 77.4478C187.309 76.6045 187.514 75.5553 187.026 74.8661C186.809 74.5592 186.476 74.3648 186.061 74.3036C185.023 74.1496 184.866 75.2002 184.799 75.6489C184.777 75.7977 184.743 76.0223 184.706 76.085C184.505 76.4204 184.307 76.7575 184.109 77.095C183.452 78.212 182.772 79.3673 182.013 80.4244C181.293 81.4258 180.46 82.385 179.655 83.3126C179.378 83.6315 179.101 83.95 178.828 84.271C178.34 84.8452 177.801 85.1637 177.271 85.193C176.836 85.2168 176.416 85.0445 176.02 84.6718C173.405 82.3185 173.87 75.8111 174.12 72.315L174.141 72.0128C174.212 71.7324 174.445 71.4717 174.691 71.1963C174.872 70.9934 175.059 70.7832 175.198 70.5574C175.322 70.3732 175.412 70.1816 175.498 69.996C175.594 69.789 175.685 69.5931 175.802 69.4721C176.396 68.8565 176.856 68.2201 177.25 67.4698C177.556 66.8869 177.941 66.3487 178.349 65.7792C178.611 65.4118 178.883 65.0321 179.134 64.6339L179.196 64.5335C179.951 63.302 180.732 62.0293 181.224 60.6205C181.337 60.3736 181.449 60.1261 181.561 59.8783C181.952 59.0133 182.356 58.1191 182.82 57.2893C182.883 57.1777 182.94 57.0552 182.997 56.9296C183.205 56.4778 183.316 56.2906 183.582 56.2603C185.507 56.0653 187.484 56.0306 189.396 55.997C190.527 55.977 191.696 55.9566 192.854 55.9032C197.294 55.6433 201.888 55.532 206.514 55.5724C206.768 55.5703 207.133 55.4502 207.332 55.1911C207.76 54.6371 207.801 53.8388 207.436 53.2051C207.033 52.507 206.241 52.3453 205.663 52.2272L205.605 52.2151C204.404 51.968 203.192 52.0493 202.02 52.1274C201.734 52.1466 201.448 52.1659 201.165 52.1799L200.996 52.1883C199.986 52.2375 198.947 52.288 197.983 52.7235L197.968 52.1954L197.283 52.5466C196.425 52.9864 195.427 53.236 194.316 53.2887C193.277 53.3383 192.237 53.3797 191.198 53.4212C190.479 53.4499 189.761 53.4784 189.042 53.5099C188.121 53.5496 187.2 53.5871 186.279 53.6217C185.906 53.6355 185.521 53.639 185.149 53.6423C184.861 53.6448 184.566 53.6473 184.27 53.6547C184.374 53.2946 184.585 52.8979 184.778 52.534C184.903 52.2993 185.021 52.0776 185.115 51.8615C185.445 51.1021 185.662 50.3056 185.872 49.5355L185.987 49.1144C186.46 47.4104 187.065 45.7532 187.749 43.9192C188.094 42.9937 188.403 42.0444 188.702 41.1262C188.968 40.3049 189.245 39.4559 189.543 38.6361C190.161 36.9387 190.312 35.1781 189.991 33.4026C189.897 32.8876 189.46 32.5019 189.108 32.1924L189.045 32.1367C188.693 31.8256 188.37 32.0967 187.834 32.5466L187.672 32.6815L187.639 32.7249C185.943 34.9279 184.367 37.2869 182.844 39.5681C182.284 40.4061 181.725 41.2435 181.155 42.0811C180.462 43.1395 179.848 44.2635 179.254 45.35C178.935 45.934 178.605 46.5379 178.269 47.1205C177.091 49.1602 176.286 51.298 175.44 53.8803C175.401 53.9996 175.348 54.1621 175.284 54.2186C175.089 54.3921 174.36 54.3975 173.968 54.4007C173.766 54.4022 173.575 54.4035 173.416 54.4177C173.028 54.452 172.64 54.4882 172.252 54.5243C171.797 54.5668 171.341 54.6092 170.886 54.6489L168.613 54.8461C166.588 55.021 164.495 55.2021 162.437 55.3939C162.267 55.4099 161.349 55.6306 161.382 56.2269C161.415 56.826 161.536 57.2924 161.751 57.6525C161.983 58.0425 162.695 58.276 163.136 58.1082C163.268 58.0579 163.4 58.0005 163.533 57.9426C163.872 57.7948 164.193 57.6551 164.501 57.6526C164.692 57.6559 164.865 57.6551 165.044 57.6589C165.44 57.6678 165.849 57.6769 166.284 57.6283L172.453 56.9428C172.88 56.8954 173.321 56.8462 173.757 56.7789C173.999 56.7412 174.236 56.6903 174.464 56.6408C174.516 56.6296 174.568 56.6184 174.619 56.6075C174.611 56.664 174.601 56.7224 174.588 56.7795C174.39 57.6205 174.177 58.475 173.97 59.3015C173.553 60.9737 173.121 62.7024 172.798 64.4296C172.416 66.4773 172.231 68.5839 172.052 70.6218L172.014 71.0528C171.969 71.6984 171.584 72.0989 171.098 72.6062C171.017 72.6902 170.936 72.7744 170.857 72.8608C167.939 76.0087 164.476 79.588 160.287 82.2282C159.728 82.5805 159.363 82.7802 159.021 82.5872C158.73 82.423 158.712 82.1139 158.781 81.4368L158.794 81.3152C158.919 80.0205 159.087 78.7042 159.25 77.4314C159.344 76.69 159.439 75.9485 159.526 75.2064L159.557 74.9521C159.626 74.4072 159.697 73.8436 159.594 73.2816C159.521 72.8814 159.18 72.6431 158.879 72.4325C158.78 72.363 158.686 72.2973 158.617 72.2364L158.285 71.943L157.963 72.2471C157.244 72.925 157.014 73.7546 156.792 74.5573C156.678 74.9694 156.571 75.3589 156.409 75.7071C155.324 77.7933 154.068 79.9291 152.235 81.4114C152.083 81.5303 151.982 81.5854 151.924 81.6111C151.902 81.555 151.874 81.4547 151.854 81.2848C151.578 78.9409 151.622 76.5717 151.987 74.0419C152.059 73.5388 151.958 72.9542 151.678 72.2544C151.488 71.7815 150.824 71.5882 150.45 71.5775C149.902 71.5495 149.599 72.3345 149.548 72.5424C149.139 74.2295 148.345 75.7258 147.5 77.2345C147.355 77.489 147.212 77.7445 147.068 78C145.91 80.0591 144.811 82.0145 143.083 83.4935C142.854 82.3652 142.998 81.3036 143.138 80.2713C143.308 79.0189 143.529 77.748 143.742 76.5185C143.91 75.5515 144.083 74.5514 144.232 73.5619C144.303 73.0908 144.203 72.5228 143.958 72.0036C143.774 71.6146 143.304 71.4442 142.868 71.3284C142.432 71.2124 142.016 71.6705 141.9 71.9295C141.546 72.7215 141.2 73.5196 140.855 74.3179C139.878 76.5754 138.867 78.9096 137.662 81.0665C137.042 82.1314 136.204 83.0809 135.465 83.8691C135.271 84.0774 134.885 84.4201 134.488 84.3803C134.051 84.3368 133.717 83.8374 133.555 83.5432C132.463 81.545 132.616 78.9574 132.765 76.4547C132.814 75.624 132.861 74.8396 132.862 74.0825C132.863 73.2857 132.763 72.5825 132.563 71.9918C132.436 71.6149 132.036 71.3917 131.224 71.2456C131.108 71.2249 130.932 71.2333 130.743 71.3898C130.553 71.5479 130.271 71.9448 130.269 72.294C130.262 73.636 129.95 74.9977 129.289 76.5793L129.21 76.7664C128.641 78.1276 128.053 79.5346 127.273 80.768C126.558 81.8989 125.648 82.9146 124.5 84.0917C123.266 85.3563 122.156 86.3054 120.745 86.8264C119.846 87.1579 118.991 87.1463 118.271 86.7919C117.465 86.395 116.832 85.5724 116.49 84.4759C115.668 81.8419 115.197 77.9219 115.996 75.1011C116.368 73.7911 117.04 72.6267 117.752 71.3938C118.043 70.8895 118.344 70.3684 118.619 69.841C119.231 68.6686 119.812 67.454 120.375 66.2793C120.685 65.6329 120.994 64.9865 121.317 64.3293L121.509 63.8998C121.996 62.8154 122.499 61.6945 122.92 60.5403C123.304 59.3318 123.385 59.1719 124.198 59.026C128.955 58.1403 133.76 57.34 138.482 56.6457C138.617 56.625 138.784 56.5993 138.882 56.6202C139.777 56.8118 140.241 56.548 140.472 56.2927C140.698 56.0432 140.913 55.5711 140.648 54.7377C140.63 54.6792 140.612 54.6158 140.594 54.551C140.475 54.1163 140.228 53.2125 139.225 53.3285C137.806 53.4912 136.414 53.8516 135.069 54.2005C134.586 54.3254 134.104 54.4502 133.622 54.566C132.804 54.7165 131.984 54.8754 131.164 55.0343C129.027 55.4484 126.823 55.8755 124.644 56.1484C124.714 55.5753 124.781 55.0386 124.851 54.504C125.308 53.5531 125.671 52.5385 126.022 51.5564L126.212 51.0286C126.335 50.658 126.401 50.281 126.465 49.9165C126.522 49.59 126.576 49.2816 126.667 48.9925C126.792 48.5969 126.946 48.2132 127.11 47.8071C127.302 47.3334 127.499 46.8437 127.644 46.3344C128.135 44.6069 128.527 43.0423 128.843 41.5505C129.278 39.4916 129.638 37.4175 129.933 35.6605C130.006 35.2239 130.04 34.7841 130.072 34.3588C130.112 33.8374 130.15 33.3452 130.254 32.8698C130.623 31.1934 130.287 29.6106 129.869 28.1498C129.715 27.613 129.145 27.1739 128.681 26.9929C128.024 26.7361 127.33 27.9034 127.322 27.9191C125.581 31.0806 123.875 34.3821 122.097 38.0305L121.945 38.377C120.092 42.6012 118.176 46.9691 116.968 51.5115C116.532 53.1291 116.103 54.8742 115.656 56.8461L115.62 57.0029C115.437 57.8307 115.361 58.1734 114.457 58.2861C112.756 58.4983 111.064 58.9023 109.427 59.2934C108.781 59.4478 108.112 59.6073 107.455 59.7524C105.215 60.2461 103.399 60.6549 101.742 61.0376C101.475 61.0993 101.073 61.3575 101.016 61.7378C101.007 61.7962 100.997 61.8548 100.987 61.9135C100.903 62.4111 100.775 63.1635 101.485 63.7436C102.247 64.366 102.961 64.0373 103.482 63.7974C104.118 63.5048 104.871 63.1788 105.636 62.9781C108.573 62.2207 111.604 61.4393 114.767 60.9246C114.229 64.4275 113.678 68.4357 113.564 72.4804C113.539 73.7421 113.454 74.8779 112.666 75.9987C110.559 78.9958 108.209 82.1453 105.317 84.869L105.204 84.9719C104.243 85.8444 101.992 87.8878 100.602 87.6396C100.221 87.5714 99.9218 87.32 99.6923 86.8799C99.32 86.1281 99.2385 85.267 99.4273 84.0885C99.644 82.7356 99.9019 81.3817 100.151 80.0726C100.207 79.7797 100.278 79.479 100.346 79.1883C100.443 78.7803 100.542 78.3585 100.608 77.9288C100.631 77.7822 100.661 77.6338 100.692 77.4848C100.83 76.8171 101.001 75.9865 100.454 75.222C100.18 74.8394 99.5858 74.556 99.1329 74.5923L99.0366 74.5996L98.9507 74.6433C98.3139 74.9661 98.1328 75.7667 97.9871 76.4101C97.9299 76.663 97.8759 76.9021 97.8072 77.063C95.3658 82.8766 92.2438 86.4077 87.9827 88.175C87.659 88.3093 87.3145 88.4389 86.992 88.4289C86.6779 88.4191 86.543 88.2979 86.4688 88.2079C86.2555 87.9482 86.1836 87.4182 86.2812 86.8248C86.3267 86.5488 86.4942 85.9533 86.6882 85.2645C87.8144 81.263 88.7868 77.24 87.2655 75.8475C86.678 75.3091 85.8223 75.2481 84.7231 75.665C83.1263 76.2705 81.4752 76.8969 79.787 77.4084L79.6302 77.4562C78.98 77.6551 78.3585 77.8458 77.716 77.747C78.2444 76.6047 78.6 75.3155 77.8363 73.968C77.5097 73.3506 76.9572 72.9355 76.3582 72.8573C75.8623 72.7923 75.3995 72.9621 75.0556 73.3341C73.5676 74.9446 73.2501 76.8193 74.1827 78.474C74.598 79.2239 73.3809 81.2905 70.5649 84.6167C70.4397 84.7648 70.3303 84.8943 70.2443 84.9976C69.2677 86.15 68.1518 87.3079 66.8337 88.5372C64.8571 90.3764 62.5786 92.2177 60.567 90.7845C59.2735 89.8352 58.634 88.4609 57.9565 87.0056C57.7909 86.6497 57.6197 86.2816 57.4417 85.9289C56.7337 84.4753 56.0342 82.8915 55.258 80.9805C57.9961 80.3097 60.1563 79.554 62.2079 78.5523C64.2679 77.4965 66.2104 76.1981 67.9814 74.6934C68.3524 74.3775 68.6813 74.0223 68.9995 73.6786C69.2974 73.3572 69.5785 73.0535 69.8878 72.7842C71.9924 70.95 73.3382 68.7615 73.8878 66.28C74.2378 64.6979 73.8603 63.0737 72.8772 61.9349C71.9343 60.8424 70.5587 60.3029 68.9999 60.413C65.6583 60.6515 63.0319 62.3525 61.3475 63.6112C56.6655 67.1088 52.9515 71.4489 49.8973 75.4572L50.7989 72.4025C51.1422 71.2386 51.4973 70.0353 52.0459 68.9564C52.4573 68.1475 53.1443 67.5158 53.8715 66.847C54.0887 66.6474 54.3054 66.4483 54.5136 66.245C56.3315 64.4711 58.2956 62.5335 60.5186 60.3212C70.0811 50.7833 78.0896 40.3907 84.3215 29.4328C85.6531 27.0914 86.6491 25.163 87.4564 23.3635C88.8574 20.2406 89.9331 16.9609 90.653 13.6152C91.1747 11.1904 91.6647 8.02341 90.8141 5.03163C90.4562 3.77339 89.7004 2.0498 88.1304 0.983565C86.4615 -0.14983 84.1399 -0.313852 81.92 0.54434C79.8821 1.33218 78.2425 2.7987 76.9074 4.12932C71.4094 9.60823 66.9101 17.0494 63.1524 26.8789C61.0982 32.2515 59.3714 37.8291 57.7011 43.2228C57.2295 44.7464 56.7579 46.2697 56.2787 47.7905L56.1812 48.0995C55.1125 51.4913 54.0073 54.9987 52.7097 58.3586C52.3102 59.393 52.0133 60.4746 51.7264 61.5206C51.1824 63.504 50.6685 65.3781 49.5063 67.0111C48.6849 68.1659 47.6277 69.1136 46.4315 70.1448C39.0893 76.4741 31.1822 82.2742 22.9299 87.3844C22.5925 87.5936 22.2216 87.8272 21.8219 88.0793C16.5126 91.4281 6.6296 97.6614 2.01599 92.1939C1.68205 91.7562 0.942309 91.6287 0.492961 91.9326C0.180941 92.1435 0.0043271 92.5882 0.307886 93.0972C2.91455 97.6919 9.15389 97.1639 14.1262 95.1365C21.2531 92.1819 27.7422 87.7134 33.1439 83.7367C36.5559 81.3135 39.2537 79.244 41.6326 77.2259C42.5596 76.5314 43.479 75.7007 44.4519 74.821C45.8398 73.5663 47.2672 72.2759 48.7121 71.4168C47.9756 75.2729 46.3614 79.0497 44.7966 82.7115C43.4079 85.961 41.9722 89.3209 41.1405 92.7419L41.0959 92.8651C40.7644 93.7749 40.2095 95.2981 40.8569 96.2157C41.1495 96.6302 41.8287 97.011 42.4584 96.9296C42.892 96.8738 43.232 96.5986 43.3909 96.1749C44.0475 94.4242 44.6116 92.6167 45.1572 90.869C45.4286 90.0003 45.709 89.102 45.9967 88.2243C46.5095 86.6594 46.9641 85.4084 47.4273 84.2866C47.4952 84.1224 47.5668 83.9285 47.644 83.7193C47.9035 83.0169 48.2956 81.9552 48.7867 81.6488C49.0045 81.513 49.3177 81.5028 49.7033 81.502L52.2761 81.5014C52.441 81.5011 52.6114 81.5012 52.7188 81.549C52.9871 81.6686 53.2406 82.2018 53.4257 82.5915C53.4995 82.7474 53.5697 82.8943 53.6383 83.0185C54.0045 83.6833 54.3399 84.3889 54.6642 85.0714C54.759 85.271 54.8537 85.4704 54.9497 85.6692C55.2056 86.2009 55.4507 86.7679 55.6878 87.3164C56.4375 89.0496 57.2122 90.842 58.5734 92.2272C60.6457 94.3374 63.727 94.3845 66.4234 92.3474C67.5523 91.4946 68.4806 90.4321 69.3781 89.4046C69.9338 88.7687 70.5341 88.1229 71.1142 87.4983C73.0337 85.4331 75.0183 83.2977 76.1866 80.7444C76.4358 80.2003 76.4941 80.2212 76.7194 80.2997C77.3252 80.5021 77.9989 80.5417 78.5235 80.4047C81.0277 79.7307 83.3118 79.0668 85.6562 78.3307C85.6527 78.3997 85.646 78.4574 85.6334 78.5055C85.1846 80.2014 84.7001 82.0152 84.1961 83.787C83.7923 85.2063 83.4498 86.8971 83.9707 88.675C84.2653 89.6805 84.9073 90.4299 85.7786 90.7851C86.6996 91.1606 87.7857 91.0623 88.7591 90.5167C90.7155 89.4188 92.513 88.0424 94.2593 86.7055C95.5695 85.7024 96.4336 84.5945 97.2224 83.3645C96.9326 85.6789 96.8235 88.167 99.0848 89.7926C99.6996 90.2183 100.347 90.398 101.006 90.3931C104.052 90.3701 107.361 86.4089 108.934 84.5253L108.971 84.4811C109.977 83.2771 110.919 82.0438 111.628 81.1041C112.031 80.5699 112.429 80.0321 112.827 79.4942L113.011 79.2457C113.053 79.1887 113.18 79.0445 113.303 78.9054C113.408 78.7865 113.504 78.676 113.593 78.573C113.634 79.0202 113.666 79.4653 113.698 79.9021C113.819 81.5724 113.945 83.2992 114.529 85.009C115.265 87.2191 116.525 89.7343 119.75 89.5756C121.709 89.6203 122.967 88.6594 124.297 87.4921C125.871 86.1118 127.166 84.9277 128.313 83.3115C128.849 82.556 129.388 81.7094 129.96 80.7241L130.076 80.5254C130.234 80.2534 130.396 79.975 130.551 79.6912C130.69 81.6823 130.912 83.7071 131.951 85.5095C132.49 86.4154 133.518 87.0769 134.509 87.1553C135.095 87.203 135.945 87.0751 136.669 86.2078C136.961 85.8573 137.274 85.506 137.577 85.1664C138.272 84.387 138.99 83.5808 139.558 82.6791C140.088 81.8448 140.491 80.9352 140.875 80.0468C140.711 81.6064 140.726 83.0678 140.917 84.4715C141.06 85.5158 141.651 86.3118 142.458 86.5493C143.183 86.7623 143.96 86.4873 144.531 85.8209C145.884 84.3082 147.431 82.4672 148.646 80.2837C148.916 79.799 149.185 79.3136 149.454 78.8283C149.562 80.3598 149.739 81.6579 150.003 82.8517C150.208 83.6657 150.737 84.2741 151.419 84.4793C152.048 84.6679 152.718 84.4948 153.257 84.0035C154.209 83.1336 155.04 82.1248 155.843 81.1493C156 80.9587 156.157 80.7687 156.314 80.5795C156.414 80.4588 156.507 80.3337 156.595 80.2059C156.571 81.0268 156.548 81.8749 156.609 82.7156C156.699 83.9692 157.618 85.321 158.946 85.3191C158.953 85.3191 158.96 85.3188 158.967 85.3189C160.539 85.3072 161.771 84.2602 162.859 83.3357C163.198 83.0475 163.518 82.7755 163.838 82.5404C165.79 81.1045 168.012 79.4075 169.664 77.4357C170.23 76.7605 170.755 76.0846 171.193 75.5122C171.443 75.1865 171.653 74.9051 171.833 74.6656C171.901 74.5746 171.969 74.4845 172.034 74.3983C172.028 74.4458 172.023 74.493 172.018 74.5393C171.968 74.9835 171.905 75.536 171.868 76.1782C171.864 76.2439 171.776 77.8036 171.962 79.7269C172.163 81.8013 172.391 84.1524 174.048 86.0853C174.571 86.6942 175.063 87.2693 175.945 87.5147C177.844 88.0433 179.775 86.5223 180.758 85.5684C181.121 85.2159 181.69 84.509 182.789 83.0463C183.49 82.1135 184.222 81.1658 184.97 80.2203C185.715 81.6872 186.648 82.9679 188.833 82.5843C189.641 82.435 190.611 82.1913 191.491 81.6261C191.427 81.8302 191.359 82.029 191.289 82.2216C191.186 82.5049 191.072 82.7811 190.818 83.0477C190.708 83.1636 190.581 83.2633 190.43 83.3532C184.899 86.6346 178.565 90.7142 173.526 96.0923C169.259 100.646 166.533 105.735 165.643 110.811C165.173 113.49 165.435 115.659 166.42 117.256C167.369 118.793 168.569 119.235 169.782 119.226C170.379 119.221 170.98 119.108 171.555 118.962C176.249 117.77 180.385 113.918 184.199 107.184C185.828 104.308 187.249 101.08 188.673 97.0225C189.211 95.4868 189.759 93.8072 190.397 91.7372C190.575 91.1596 190.771 90.5728 190.961 90.005C191.365 88.796 191.782 87.546 192.066 86.2721C192.396 84.7828 193.98 83.844 195.484 83.1229C195.799 82.9728 196.114 82.8204 196.429 82.6679C197.84 81.9856 199.298 81.2803 200.791 80.7973C202.221 80.3348 203.651 79.8309 205.035 79.3433C208.264 78.206 211.603 77.03 215.051 76.3467C216.094 76.14 217.411 75.7057 217.76 74.8108C217.886 74.4871 217.938 73.9678 217.47 73.3296Z" fill="#1E293B"/>
<path d="M99.7141 73.2232C99.7785 73.2297 99.842 73.2325 99.9056 73.2319C100.808 73.2251 101.581 72.5367 101.672 71.6191C101.719 71.1433 101.578 70.6777 101.275 70.3079C100.972 69.9382 100.544 69.7084 100.068 69.6614C99.5927 69.6141 99.1265 69.7548 98.7567 70.058C98.387 70.3609 98.1575 70.7898 98.1102 71.2656C98.0629 71.7413 98.2037 72.2067 98.5065 72.5767C98.8097 72.9465 99.2384 73.176 99.7141 73.2232Z" fill="#1E293B"/>
<path d="M130.672 66.9534C130.575 67.9354 131.294 68.8136 132.276 68.911C132.341 68.9175 132.405 68.9203 132.468 68.9197C133.37 68.9132 134.143 68.2245 134.234 67.3069C134.332 66.3249 133.612 65.4467 132.63 65.3493C131.645 65.2518 130.77 65.9714 130.672 66.9534Z" fill="#1E293B"/>
<path d="M159.638 66.3181C159.703 66.3245 159.768 66.3273 159.832 66.3268C160.239 66.324 160.63 66.1832 160.949 65.9218C161.319 65.6186 161.549 65.1897 161.596 64.7142C161.693 63.7322 160.974 62.8538 159.992 62.7563C159.516 62.709 159.05 62.8497 158.681 63.1529C158.311 63.4558 158.081 63.8847 158.034 64.3605C157.987 64.8362 158.128 65.3018 158.431 65.6716C158.734 66.0413 159.163 66.2708 159.638 66.3181Z" fill="#1E293B"/>
</svg>
